<svg xmlns="http://www.w3.org/2000/svg" viewBox="0 0 966 226"><defs><style>.cls-1{fill:#030303;}.cls-2{fill:#be2130;}</style></defs><g id="Layer_2" data-name="Layer 2"><g id="Layer_1-2" data-name="Layer 1"><path class="cls-1" d="M555,0c5.38,1.45,6.09,4.68,5.42,10.06-2.72,21.94-4.79,44-7.06,66-.27,2.64-.29,5.3-.45,8.27h268c1.63-10.09,3.19-20.25,4.93-30.38,1.83-10.61,9.33-13.83,19.43-8.39-2.15,12.82-4.32,25.68-6.58,39.08h5.95q57.95,0,115.91,0c1.81,0,3.61.26,5.42.4v8c-1.82.09-3.64.27-5.46.27H837.91c-.66,5.72-1.28,11-1.95,16.81h36.46c1.54,7.28.49,8.94-6.58,9.48a87,87,0,0,1-12-.13c-6.23-.37-12.45-1-18.83-1.47-.56,6.71-1.42,12.83-1.53,19-.31,18.27-1,36.57-.27,54.81.65,16.4,11.57,23.59,27.45,19.35,4.76-1.28,9.34-3.22,14.08-4.88,3.33,3,2.76,5.46-1.4,7.24L844,226H832c-12.19-5.37-16.41-16-17-28-.78-15.09-.72-30.25-.4-45.37.25-11.42,1.48-22.83,2.33-34.94l-21.5,1.61c.67-1.46.91-3.21,1.71-3.52,6.68-2.63,13.46-5,21.06-7.75.47-3.82,1.11-9,1.78-14.51H551.74l-6.16,84.55a9.46,9.46,0,0,0,2.42-4.27c7.19-20.16,16.25-39.28,31.21-55,7.35-7.71,15.78-13.76,26.71-15.44,13.05-2,23,6.9,22.44,20.07a33.22,33.22,0,0,1-11.2,23.74c-8.95,8-18.87,15-28.8,22.73a24,24,0,0,0,1.87,3.57c7.44,11,14.64,22.11,22.57,32.7,4.52,6,11.5,7,18.63,5.31,4-.95,7.94-2.37,12.22-3.68.42,1.11.92,2.4,1.58,4.09-3.82,2.16-7.24,4.65-11,6.13-7.62,2.95-15.45,5.35-23.19,8h-4c-3.39-2.54-7.33-4.6-10.09-7.7-12.82-14.37-20.87-31.76-30.48-48.65a58.55,58.55,0,0,0,6.37-2.58c9.13-5,18.67-9.52,27.1-15.54,4.4-3.15,7.28-8.82,10-13.81a10.31,10.31,0,0,0-2-12.87,10.66,10.66,0,0,0-13-1.92c-5.84,3.27-11.9,6.9-16.35,11.77-13.05,14.25-20.22,31.85-25.46,50.15-3.46,12.06-5.94,24.41-8.94,37l-16.84,2c2.31-43.8,4.59-87,6.87-130.3H366.68a7.82,7.82,0,0,0-.52,1.6C365,116.08,363.52,137,363,158c-.38,14.77.25,29.6,1.13,44.36.48,8.16,4.41,10.65,12.54,9.15,4.67-.87,9.23-2.38,13.8-3.59,1.9,2.34,1.67,4.14-1,5.53-1.62.83-3.08,2-4.76,2.7-8.53,3.36-17.1,6.6-25.65,9.88h-4c-6.83-3.8-8.9-10.15-9.29-17.38-.25-4.65-.8-9.32-.66-14,1-32,2.06-63.91,3.1-95.86.06-1.74,0-3.49,0-5.09a8.39,8.39,0,0,0-1.49-.4q-105.48,0-211,.07a7,7,0,0,0-4.84,2.47c-5.7,7.35-11.12,14.91-17.46,23.52,14.5,21.38,28.75,43.2,43.93,64.35,5.85,8.15,13.55,15.06,20.91,22,6.37,6,14.29,7.48,22.81,5.2,2.4-.64,4.81-1.26,7.51-2,.73,2.16,1.43,4.25,2.18,6.45-1.71.7-2.91,1.26-4.15,1.68-8.86,3-17.73,5.94-26.6,8.91h-6c-9.74-4.27-17.45-11.09-24.21-19.14-20.72-24.67-36.69-52.45-52.92-80l23.48-33.37H94.83q-2,64.29-3.94,128.16l-20.41,2.42c1.37-43.9,2.73-87.21,4.09-130.78-6.32,0-11.46,0-16.61,0L0,93V85c2-.14,4-.39,6-.4q31.25,0,62.48,0h5.63c0-10.25.26-20-.1-29.81-.21-6-3.19-8.59-9.26-8.88-5.61-.26-11.23,0-17.42,0l-.44-6.66c11.67-1.71,23.21-4,34.85-4.92C90.4,33.57,94,37.37,95.32,46a58.1,58.1,0,0,1,.5,8.45c.06,9.92,0,19.84,0,30.15,9.52,0,19.32.09,29.11-.12,1.3,0,2.86-1.37,3.78-2.52,4.79-6,8.94-12.51,14.21-18a330.78,330.78,0,0,1,27-25.67,23.34,23.34,0,0,1,21.74-4.41c5.76,1.6,9.5,6.52,9,12.23s-2.78,10.42-7.47,13.79c-8.94-6.87-15.5-7.82-24.09-3-11.77,6.65-20.38,16.75-29.39,27.41H348.91c1.35-23.14,2.89-46.18,3.93-69.25.27-6,.73-11.42,6.16-15.09h9a13.15,13.15,0,0,0,2.55.9c3.55.48,5,2.05,4.53,5.95-2.05,17-3.88,34-5.67,51.06-.91,8.73-1.56,17.49-2.34,26.37h168c0-2.43-.1-4.58,0-6.71,1.21-22.1,2.71-44.18,3.53-66.29C538.86,5.47,541,2.12,546,0Z"/><path class="cls-1" d="M235,226c-.45-.41-.84-1.05-1.36-1.2-17.93-5.09-22.93-28.25-11-44.1,7.38-9.82,17.82-15,29.28-17.71,9.49-2.25,19.3-3.21,29-4.32,3.16-.36,4.95-.92,4.93-4.46-.05-7.29.65-14.63,0-21.86-.77-8.91-6.17-15-14.56-17.85-8.93-3-17.84-2.68-25.57,3.4-5,3.93-5.68,13.35-2.06,20.89.93,1.94,2.12,3.75,3.19,5.61-5.1,3.76-13.51,4-18,.44a13,13,0,0,1-3.13-16.31c2.51-4.69,5.81-9.58,10-12.63,13.65-9.87,29-14.57,46-11.93,11.33,1.75,19.81,8.68,21.16,20.08,1.37,11.6.7,23.48.46,35.23-.21,10.47-1.18,20.92-1.55,31.39a39.84,39.84,0,0,0,1,9.85c3,13.61,12.15,18,24.92,12.07,2.27-1.06,4.48-2.8,6,1.37a35.64,35.64,0,0,1-20.87,11A16.54,16.54,0,0,0,310,226h-5a14.74,14.74,0,0,0-3.19-1.76C293.28,222,287.89,216.34,286,208c-1.42-6.31-1.46-12.94-2.07-19-.33.53-1.14,1.71-1.83,3-8.4,15.22-18.82,28.28-36.13,34H235Zm49.72-61c-12,.6-23.34,1.41-33.91,6.47-8.78,4.2-14,11.14-14.44,21-.28,5.88.43,11.8,5.94,15.51s10.89,1.94,16-.87a41.56,41.56,0,0,0,8.43-6.1C276.85,191.45,282.71,179.65,284.72,165Z"/><path class="cls-1" d="M418,226c-.38-.49-.68-1.29-1.16-1.41C399.18,220,393,194.32,409,177.6c10.65-11.17,24.75-15.17,39.38-17.51,6.7-1.07,13.51-1.39,21.57-2.18,0-8.51.67-17.17-.19-25.68s-6.06-14.74-14.33-17.59c-8.93-3.09-17.93-3-25.59,3.08-5.8,4.64-5.59,11.38-3.52,17.9,1,3.13,2.73,6,4.13,9-5.92,3.82-14.11,3.64-18.46-.45s-5.37-11.39-1.85-17.53a31.27,31.27,0,0,1,7.41-9.24c14.44-11.17,30.72-16.36,49-13.27,12.37,2.09,21.08,12,21.35,25.26.24,12.12-.71,24.26-1.11,36.39-.34,10.14-1.14,20.3-.85,30.42.48,16.54,11.58,23,26.59,15.91l2.68-1.28c2.59,1.9,2.69,4-.06,5.37-6,3.05-12.13,5.79-18.22,8.63-.95.44-1.95.76-2.93,1.14h-5c-.6-.44-1.14-1.13-1.81-1.28-10.91-2.51-16.74-9.69-18.35-20.41-.75-4.95-.78-10-1.16-15.45-9.24,16.51-19.44,31.6-38.68,37.14Zm50.47-60.56c-10.93-.58-24.45,1.79-32.94,5.59-10.31,4.62-15.66,12.73-15.42,23.39.31,13.68,9.61,19.58,21.5,12.91C457.7,198.31,465.43,183.54,468.47,165.44Z"/><path class="cls-1" d="M899,226c-7.57-5.29-8.71-13.6-8.72-21.56,0-29.61.42-59.22,1.14-88.82.24-9.71,4.74-12.61,14.42-10.78a52.25,52.25,0,0,1,6.06,1.86c-1.09,10.32-2.76,20.2-3.07,30.12-.64,20.75-.89,41.53-.64,62.3.14,11,4.74,14.16,15.53,12,4-.8,7.94-2.15,12-3.27,1.9,2.17,2,4.18-.93,5.44-9.26,3.95-18.57,7.78-27.86,11.67-.67.29-1.29.69-1.94,1Z"/><path class="cls-1" d="M764,226c-7-4-8.79-11-8.93-18.15-.43-22.12-.5-44.25-.42-66.37,0-9,.85-17.94,1.27-26.92.34-7.52,3.34-10.36,10.94-10.16a39.52,39.52,0,0,1,4.45.57c4,.56,5.26,2.38,4.69,6.74-3.61,27.4-5.94,54.89-4,82.57.09,1.32.16,2.66.38,4,2.23,13.56,5.78,15.8,19.28,12.12,2.86-.78,5.66-1.76,8.39-2.61,2.65,2.7,1.48,4.31-1.09,5.85-8.9,5.35-18.16,9.71-28.5,11.45-.53.09-1,.62-1.47.94Z"/><path class="cls-2" d="M756.93,55.72c.1-6.82,4.37-13.65,9.69-15.53,8.41-3,17.24,5.32,16.16,15.21a24.87,24.87,0,0,1-.8,3.89c-1.94,7.25-8.28,12.4-14.17,11.57C761.47,70,756.82,63.48,756.93,55.72Z"/><path class="cls-2" d="M891.73,55.35c2.32-4.21,4.12-8.83,7.09-12.51s8.76-4.14,12.76-2c4.75,2.54,8,9.09,7.23,14.77a27.62,27.62,0,0,1-1.26,5.3c-2.17,6.36-8.54,10.86-13.84,9.9C897.48,69.69,893,63.48,893,56Z"/><path class="cls-1" d="M641,118.48a8.47,8.47,0,0,1-.79-1.87c-.16-1.13-.15-2.29-.26-4.35,10.25-2.66,20.44-5.73,30.81-7.86,7.78-1.6,12.1,2.87,12,11.77,0,6.49-.56,13-1.07,19.45-1,13-2.22,26.07-2.51,39.52a44,44,0,0,0,1.71-4.23c4.9-17.07,10-34.11,20-49.07,5.94-8.87,12.88-16.68,24.24-18.54,7.44-1.22,14.29,2,16.88,7.75,2.69,6,.4,13.33-5.63,18-14.2-8.4-24-6.29-33.23,7.75-8.51,12.89-13.35,27.42-16.94,42.27-3.38,14-5.88,28.24-8.83,42.72l-17.14,2.08c.33-6.16.72-12.07,1-18q1.51-38.43,3-76.87c0-1.49,0-3-.07-4.49-.37-6.92-2.39-8.93-9.38-8.36C650.3,116.51,645.92,117.62,641,118.48Z"/></g></g></svg>